# xmcd
#
# Track frame offsets:
#	150
#	14015
#	24480
#	37427
#	47265
#	57447
#	72015
#	80182
#	89510
#	106717
#	119622
#	135172
#	149475
#	159737
#	177655
#	185352
#	194717
#	205930
#	222265
#	236532
#	249200
#	263010
#
# Disc length: 3764 seconds
#
# Revision: 3
# Processed by: cddbd v1.5.2PL0 Copyright (c) Steve Scherf et al.
# Submitted via: EasyCDDAExtractor 2010.6.0.0
#
DISCID=470eb216
DTITLE=LEO CANHOTO and ROBERTINHO - GRANDES SUCESSOS [2001]
DYEAR=2001
DGENRE=SERTANEJO
TTITLE0=MÂO DE FERRO (BY DJ GILMAR SINISTRO)
TTITLE1=LICÂO DE MORAL (BY DJ GILMAR SINISTRO)
TTITLE2=VOU TOMA UM PINGÂO (BY DJ GILMAR SINISTRO)
TTITLE3=TAPINHA DE AMOR (BY DJ GILMAR SINISTRO)
TTITLE4=O LAVRADOR E O OPERARIO (BY DJ GILMAR SINISTRO)
TTITLE5=O HOMEM MAU (BY DJ GILMAR SINISTRO)
TTITLE6=DESPEITO (BY DJ GILMAR SINISTRO)
TTITLE7=A GAIVOTA (BY DJ GILMAR SINISTRO)
TTITLE8=O ULTIMO JULGAMENTO (BY DJ GILMAR SINISTRO)
TTITLE9=MUNDO VÉIO SEM PORTEIRA (BY DJ GILMAR SINISTRO)
TTITLE10=PEDRO QUEROSENE (BY DJ GILMAR SINISTRO)
TTITLE11=O VENDEDOR (BY DJ GILMAR SINISTRO)
TTITLE12=MEU IRMÂO DA ROÇA (BY DJ GILMAR SINISTRO)
TTITLE13=JACK, O MATADOR (BY DJ GILMAR SINISTRO)
TTITLE14=A MARRECA (BY DJ GILMAR SINISTRO)
TTITLE15=MOLA MESTRA (BY DJ GILMAR SINISTRO)
TTITLE16=ESTEIO DA NACÂO (BY DJ GILMAR SINISTRO)
TTITLE17=MEU VELHO PAI (BY DJ GILMAR SINISTRO)
TTITLE18=PASSAPORTE PARA O ASILO (BY DJ GILMAR SINISTRO)
TTITLE19=LONGE DOS OLHOS PERTO DO CORAÇÂO (BY DJ GILMAR SINISTRO)
TTITLE20=MEU TELEFONE (BY DJ GILMAR SINISTRO)
TTITLE21=ROCK BRAVO CHEGOU PARA MATAR (BY DJ GILMAR SINISTRO)
EXTD=
EXTT0=
EXTT1=
EXTT2=
EXTT3=
EXTT4=
EXTT5=
EXTT6=
EXTT7=
EXTT8=
EXTT9=
EXTT10=
EXTT11=
EXTT12=
EXTT13=
EXTT14=
EXTT15=
EXTT16=
EXTT17=
EXTT18=
EXTT19=
EXTT20=
EXTT21=
PLAYORDER=
